<svg width="86" height="86" viewBox="0 0 86 86" fill="none" xmlns="http://www.w3.org/2000/svg">
<path d="M65.3598 51.6003H61.0598V43.9825C61.0598 35.9096 57.9165 28.3201 52.2079 22.6123C52.047 22.4506 51.8286 22.3603 51.5998 22.3603H50.7398V19.9068L53.2837 11.4272C53.3732 11.1262 53.2932 10.8002 53.0722 10.5758C52.8511 10.3522 52.5226 10.267 52.2242 10.353L46.5258 11.9819L43.3851 10.4115C43.1435 10.2902 42.8579 10.2902 42.6154 10.4115L39.4738 11.9819L33.7755 10.3539C33.4762 10.2687 33.1485 10.353 32.9275 10.5766C32.7065 10.8002 32.6257 11.127 32.716 11.428L35.2598 19.9068V22.3603H34.3998C34.1711 22.3603 33.9526 22.4506 33.7918 22.6123C28.3205 28.0845 25.2099 35.2973 24.9639 43.0003H24.0798H17.1998C16.7243 43.0003 16.3398 43.3856 16.3398 43.8603V62.7803C16.3398 63.2551 16.7243 63.6403 17.1998 63.6403H24.0798C24.5554 63.6403 24.9398 63.2551 24.9398 62.7803V61.9203H29.2398C29.7154 61.9203 30.0998 61.5351 30.0998 61.0603V60.2003H35.8593L40.8025 63.4959C40.9453 63.5905 41.1113 63.6403 41.2798 63.6403C41.3409 63.6403 41.4028 63.6335 41.4639 63.6206L68.9839 57.6006C69.3786 57.5137 69.6598 57.1645 69.6598 56.7603V55.9003C69.6598 53.5293 67.7309 51.6003 65.3598 51.6003ZM39.3242 13.7268C39.5315 13.7861 39.7533 13.7655 39.9451 13.6692L42.9998 12.1418L46.0554 13.6692C46.2472 13.7655 46.4682 13.7861 46.6763 13.7268L51.1845 12.4385L49.24 18.9203H46.629L47.2835 15.6489L45.597 15.3118L44.8746 18.9203H41.125L40.4026 15.3118L38.717 15.6489L39.3706 18.9203H36.7597L34.8152 12.4394L39.3242 13.7268ZM36.9798 20.6403H49.0198V22.3603H36.9798V20.6403ZM23.2198 61.9203H18.0598V44.7203H23.2198V61.0603V61.9203ZM28.3798 60.2003H24.9398V44.7203H28.3798V60.2003ZM26.6839 43.0003C26.9256 35.8735 29.7662 29.1956 34.7593 24.0803H51.2404C56.4666 29.4338 59.3398 36.4867 59.3398 43.9825V51.6003H45.4895C45.3924 51.2194 45.2169 50.8599 44.9581 50.558L40.2117 45.0213C40.0492 44.8296 39.811 44.7203 39.5598 44.7203H30.0998V43.8603C30.0998 43.3856 29.7154 43.0003 29.2398 43.0003H26.6839ZM67.9398 56.068L41.4527 61.8619L36.5971 58.6248C36.4561 58.5311 36.2893 58.4803 36.1198 58.4803H30.0998V46.4403H39.1642L43.6534 51.6769C43.7859 51.8325 43.8598 52.0312 43.8598 52.2359V53.3203C43.8598 53.7942 43.4746 54.1803 42.9998 54.1803H41.9919C41.7657 54.1803 41.5439 54.0883 41.3839 53.9284L37.5879 50.1323L36.3718 51.3484L40.1679 55.1444C40.6546 55.632 41.3031 55.9003 41.9919 55.9003H42.9998C44.4223 55.9003 45.5798 54.7428 45.5798 53.3203H65.3598C66.7823 53.3203 67.9398 54.4779 67.9398 55.9003V56.068Z" fill="#5051DB"/>
<path d="M42.9998 44.7203C48.2157 44.7203 52.4598 40.4762 52.4598 35.2603C52.4598 30.0444 48.2157 25.8003 42.9998 25.8003C37.7839 25.8003 33.5398 30.0444 33.5398 35.2603C33.5398 40.4762 37.7839 44.7203 42.9998 44.7203ZM50.7398 35.2603C50.7398 39.2369 47.7238 42.5204 43.8598 42.9495V41.122C44.8583 40.766 45.5798 39.82 45.5798 38.7003V36.9803C45.5798 35.5578 44.4222 34.4003 42.9998 34.4003C42.5251 34.4003 42.1398 34.0141 42.1398 33.5403V31.8203C42.1398 31.3464 42.5251 30.9603 42.9998 30.9603C43.4745 30.9603 43.8598 31.3464 43.8598 31.8203V32.6803H45.5798V31.8203C45.5798 30.7005 44.8583 29.7545 43.8598 29.3985V27.571C47.7238 28.0001 50.7398 31.2836 50.7398 35.2603ZM42.1398 27.571V29.3985C41.1413 29.7545 40.4198 30.7005 40.4198 31.8203V33.5403C40.4198 34.9627 41.5774 36.1203 42.9998 36.1203C43.4745 36.1203 43.8598 36.5064 43.8598 36.9803V38.7003C43.8598 39.1741 43.4745 39.5603 42.9998 39.5603C42.5251 39.5603 42.1398 39.1741 42.1398 38.7003V37.8403H40.4198V38.7003C40.4198 39.82 41.1413 40.766 42.1398 41.122V42.9495C38.2758 42.5195 35.2598 39.2369 35.2598 35.2603C35.2598 31.2836 38.2758 28.0001 42.1398 27.571Z" fill="#5051DB"/>
<path d="M49.0199 44.7201C47.5975 44.7201 46.4399 45.8777 46.4399 47.3001C46.4399 48.7226 47.5975 49.8801 49.0199 49.8801C50.4424 49.8801 51.5999 48.7226 51.5999 47.3001C51.5999 45.8777 50.4424 44.7201 49.0199 44.7201ZM49.0199 48.1601C48.5452 48.1601 48.1599 47.774 48.1599 47.3001C48.1599 46.8263 48.5452 46.4401 49.0199 46.4401C49.4947 46.4401 49.8799 46.8263 49.8799 47.3001C49.8799 47.774 49.4947 48.1601 49.0199 48.1601Z" fill="#5051DB"/>
<path d="M55.0401 46.4401C56.9373 46.4401 58.4801 44.8972 58.4801 43.0001C58.4801 41.1029 56.9373 39.5601 55.0401 39.5601C53.1429 39.5601 51.6001 41.1029 51.6001 43.0001C51.6001 44.8972 53.1429 46.4401 55.0401 46.4401ZM55.0401 41.2801C55.9887 41.2801 56.7601 42.0515 56.7601 43.0001C56.7601 43.9487 55.9887 44.7201 55.0401 44.7201C54.0915 44.7201 53.3201 43.9487 53.3201 43.0001C53.3201 42.0515 54.0915 41.2801 55.0401 41.2801Z" fill="#5051DB"/>
<path d="M19.7798 37.8403C21.677 37.8403 23.2198 36.2975 23.2198 34.4003C23.2198 32.5031 21.677 30.9603 19.7798 30.9603C17.8827 30.9603 16.3398 32.5031 16.3398 34.4003C16.3398 36.2975 17.8827 37.8403 19.7798 37.8403ZM19.7798 32.6803C20.7284 32.6803 21.4998 33.4517 21.4998 34.4003C21.4998 35.3489 20.7284 36.1203 19.7798 36.1203C18.8313 36.1203 18.0598 35.3489 18.0598 34.4003C18.0598 33.4517 18.8313 32.6803 19.7798 32.6803Z" fill="#5051DB"/>
<path d="M23.2198 30.1001C26.0656 30.1001 28.3798 27.7859 28.3798 24.9401C28.3798 22.0944 26.0656 19.7801 23.2198 19.7801C20.3741 19.7801 18.0598 22.0944 18.0598 24.9401C18.0598 27.7859 20.3741 30.1001 23.2198 30.1001ZM23.2198 21.5001C25.117 21.5001 26.6598 23.043 26.6598 24.9401C26.6598 26.8373 25.117 28.3801 23.2198 28.3801C21.3227 28.3801 19.7798 26.8373 19.7798 24.9401C19.7798 23.043 21.3227 21.5001 23.2198 21.5001Z" fill="#5051DB"/>
<path d="M62.7798 24.9401C62.7798 26.8373 64.3226 28.3801 66.2198 28.3801C68.1169 28.3801 69.6598 26.8373 69.6598 24.9401C69.6598 23.043 68.1169 21.5001 66.2198 21.5001C64.3226 21.5001 62.7798 23.043 62.7798 24.9401ZM66.2198 23.2201C67.1684 23.2201 67.9398 23.9915 67.9398 24.9401C67.9398 25.8887 67.1684 26.6601 66.2198 26.6601C65.2712 26.6601 64.4998 25.8887 64.4998 24.9401C64.4998 23.9915 65.2712 23.2201 66.2198 23.2201Z" fill="#5051DB"/>
<path d="M60.1998 20.6403C63.0455 20.6403 65.3598 18.3261 65.3598 15.4803C65.3598 12.6346 63.0455 10.3203 60.1998 10.3203C57.3541 10.3203 55.0398 12.6346 55.0398 15.4803C55.0398 18.3261 57.3541 20.6403 60.1998 20.6403ZM60.1998 12.0403C62.097 12.0403 63.6398 13.5832 63.6398 15.4803C63.6398 17.3775 62.097 18.9203 60.1998 18.9203C58.3026 18.9203 56.7598 17.3775 56.7598 15.4803C56.7598 13.5832 58.3026 12.0403 60.1998 12.0403Z" fill="#5051DB"/>
</svg>
