<svg width="86" height="86" viewBox="0 0 86 86" fill="none" xmlns="http://www.w3.org/2000/svg">
<path d="M22.3125 53.4422C23.2429 46.4635 26.9868 40.036 32.5893 35.7753V30.9835C32.5893 22.6896 35.8197 14.8925 41.6838 9.02723L41.7859 8.9252C42.2195 8.4916 42.9203 8.4916 43.3539 8.9252L43.456 9.02723C49.3201 14.8914 52.5505 22.6896 52.5505 30.9835V35.7753C58.153 40.036 61.8968 46.4635 62.8273 53.4422L63.6301 59.466C63.7 59.9917 63.3884 60.494 62.886 60.6637C62.7685 60.7025 62.6487 60.7214 62.5312 60.7214C62.1419 60.7214 61.7693 60.5151 61.5686 60.1625L60.4341 58.1763C58.7796 55.2819 55.8242 53.3878 52.5505 53.0319V54.0676C52.5505 54.6798 52.0537 55.1766 51.4416 55.1766H50.3326V58.5035C50.3326 59.1156 49.8358 59.6124 49.2237 59.6124H43.6789V64.0483H41.4609V59.6124H35.9161C35.304 59.6124 34.8072 59.1156 34.8072 58.5035V55.1766H33.6982C33.0861 55.1766 32.5893 54.6798 32.5893 54.0676V53.033C29.3156 53.3878 26.3602 55.283 24.7057 58.1774L23.5712 60.1636C23.3694 60.5151 22.9979 60.7214 22.6086 60.7214C22.4911 60.7214 22.3713 60.7025 22.2538 60.6626C21.7514 60.4929 21.4398 59.9917 21.5096 59.4649L22.3125 53.4422ZM42.5699 11.3006C40.24 13.7913 38.4058 16.6291 37.1027 19.6899H48.0371C46.734 16.6291 44.8998 13.7913 42.5699 11.3006ZM60.7846 54.9004L60.6293 53.7349C59.8541 47.9173 56.9331 42.5311 52.5505 38.6631V50.7995C55.7255 51.0834 58.6709 52.5594 60.7846 54.9004ZM37.0251 57.3945H48.1147V55.1766H37.0251V57.3945ZM34.8072 52.9587H50.3326V30.9835C50.3326 27.8518 49.8314 24.7977 48.8765 21.9078H36.2621C35.3084 24.7977 34.8072 27.8518 34.8072 30.9835V52.9587ZM32.5893 50.8006V38.6631C28.2066 42.5322 25.2868 47.9184 24.5105 53.7349L24.3552 54.9004C26.4689 52.5594 29.4143 51.0834 32.5893 50.8006Z" fill="#5051DB"/>
<path d="M42.5699 28.5616C46.2394 28.5616 49.2236 31.5458 49.2236 35.2153C49.2236 38.8849 46.2394 41.8691 42.5699 41.8691C38.9003 41.8691 35.9161 38.8849 35.9161 35.2153C35.9161 31.5458 38.9003 28.5616 42.5699 28.5616ZM42.5699 39.6512C45.0162 39.6512 47.0057 37.6617 47.0057 35.2153C47.0057 32.769 45.0162 30.7795 42.5699 30.7795C40.1235 30.7795 38.134 32.769 38.134 35.2153C38.134 37.6617 40.1235 39.6512 42.5699 39.6512Z" fill="#5051DB"/>
<path d="M37.2113 61.2149L39.0566 62.4447L37.8778 64.2135C37.32 65.0508 37.025 66.0244 37.025 67.0303C37.025 68.3865 37.5529 69.6618 38.5121 70.6211L42.5698 74.6788L46.6275 70.6211C47.5867 69.6618 48.1146 68.3865 48.1146 67.0303C48.1146 66.0244 47.8196 65.0508 47.2618 64.2135L46.083 62.4447L47.9283 61.2149L49.1071 62.9837C49.9089 64.1858 50.3325 65.5853 50.3325 67.0303C50.3325 68.9787 49.574 70.8118 48.1956 72.1891L43.3538 77.0309C43.1376 77.2471 42.8537 77.3558 42.5698 77.3558C42.2859 77.3558 42.002 77.2471 41.7858 77.0309L36.944 72.1891C35.5656 70.8118 34.8071 68.9787 34.8071 67.0303C34.8071 65.5853 35.2307 64.1858 36.0325 62.9837L37.2113 61.2149Z" fill="#5051DB"/>
</svg>
