<svg width="76" height="76" viewBox="0 0 76 76" fill="none" xmlns="http://www.w3.org/2000/svg">
<path d="M38.0555 15.1998C43.8424 15.1998 48.5165 19.8739 48.5165 25.7721C48.5165 31.5591 43.8424 36.2332 38.0555 36.2332C32.1572 36.2332 27.4832 31.5591 27.4832 25.7721C27.4832 19.8739 32.1572 15.1998 38.0555 15.1998ZM38.0555 17.4256C33.3814 17.4256 29.7089 21.0981 29.7089 25.7721C29.7089 30.3349 33.3814 34.0074 38.0555 34.0074C42.6183 34.0074 46.2908 30.3349 46.2908 25.7721C46.2908 21.0981 42.6183 17.4256 38.0555 17.4256Z" fill="#5051DB"/>
<path d="M24.4786 52.3699C24.4786 52.9264 23.9221 53.3715 23.2544 53.2602C22.698 53.2602 22.2528 52.7038 22.3641 52.0361C23.2544 44.1347 29.9316 38.0139 38.0556 38.0139C46.0683 38.0139 52.8569 44.1347 53.7472 52.0361C53.7472 52.7038 53.302 53.2602 52.7456 53.2602C52.0779 53.3715 51.5214 52.9264 51.5214 52.3699C50.7424 45.4701 44.9555 40.2396 38.0556 40.2396C31.1558 40.2396 25.2576 45.4701 24.4786 52.3699Z" fill="#5051DB"/>
<path d="M58.6438 24.2142C63.2066 24.2142 66.879 27.8866 66.879 32.3381C66.879 36.9009 63.2066 40.5734 58.6438 40.5734C54.1923 40.5734 50.5198 36.9009 50.5198 32.3381C50.5198 27.8866 54.1923 24.2142 58.6438 24.2142ZM58.6438 26.4399C55.4164 26.4399 52.7455 29.1108 52.7455 32.3381C52.7455 35.6768 55.4164 38.3477 58.6438 38.3477C61.9824 38.3477 64.6533 35.6768 64.6533 32.3381C64.6533 29.1108 61.9824 26.4399 58.6438 26.4399Z" fill="#5051DB"/>
<path d="M54.1921 45.025C53.6357 45.3588 52.968 45.1363 52.6341 44.5798C52.4115 44.0234 52.6341 43.3557 53.1906 43.0218C54.8599 42.2428 56.7518 41.6863 58.6436 41.6863C64.6532 41.6863 69.7724 46.1378 70.6627 52.0361C70.774 52.5925 70.3288 53.2602 69.7724 53.2602C69.1047 53.3715 68.5482 52.9264 68.4369 52.3699C67.7692 47.4733 63.5403 43.9121 58.6436 43.9121C57.0856 43.9121 55.5276 44.3572 54.1921 45.025Z" fill="#5051DB"/>
<path d="M17.3561 24.2142C21.8076 24.2142 25.4801 27.8866 25.4801 32.3381C25.4801 36.9009 21.8076 40.5734 17.3561 40.5734C12.7933 40.5734 9.12085 36.9009 9.12085 32.3381C9.12085 27.8866 12.7933 24.2142 17.3561 24.2142ZM17.3561 26.4399C14.0175 26.4399 11.3466 29.1108 11.3466 32.3381C11.3466 35.6768 14.0175 38.3477 17.3561 38.3477C20.5835 38.3477 23.2544 35.6768 23.2544 32.3381C23.2544 29.1108 20.5835 26.4399 17.3561 26.4399Z" fill="#5051DB"/>
<path d="M7.56286 52.3699C7.45157 52.9264 6.89514 53.3715 6.3387 53.2602C5.67097 53.2602 5.22582 52.5925 5.33711 52.0361C6.22741 46.1378 11.3466 41.6863 17.3562 41.6863C19.2481 41.6863 21.1399 42.2428 22.9205 43.0218C23.3657 43.3557 23.5883 44.0234 23.3657 44.5798C23.0318 45.1363 22.3641 45.3588 21.8077 45.025C20.4722 44.3572 18.9142 43.9121 17.3562 43.9121C12.4595 43.9121 8.23059 47.4733 7.56286 52.3699Z" fill="#5051DB"/>
</svg>
