<svg width="60" height="60" viewBox="0 0 60 60" fill="none" xmlns="http://www.w3.org/2000/svg">
<path d="M36.3338 40.6045H34.6255V32.9172C34.6255 32.2376 34.8955 31.5859 35.376 31.1053C35.8565 30.6248 36.5083 30.3548 37.1879 30.3548C37.8675 30.3548 38.5193 30.6248 38.9998 31.1053C39.4803 31.5859 39.7503 32.2376 39.7503 32.9172V38.042H38.042V32.9172C38.042 32.6907 37.9521 32.4734 37.7919 32.3132C37.6317 32.1531 37.4144 32.0631 37.1879 32.0631C36.9614 32.0631 36.7441 32.1531 36.5839 32.3132C36.4238 32.4734 36.3338 32.6907 36.3338 32.9172V40.6045Z" fill="#5051DB"/>
<path d="M43.1668 38.0421H41.4585V31.209C41.4585 30.9824 41.3686 30.7652 41.2084 30.605C41.0482 30.4448 40.8309 30.3548 40.6044 30.3548C40.3779 30.3548 40.1606 30.4448 40.0004 30.605C39.8403 30.7652 39.7503 30.9824 39.7503 31.209V38.0421H38.042V31.209C38.042 30.5294 38.312 29.8776 38.7925 29.3971C39.2731 28.9165 39.9248 28.6465 40.6044 28.6465C41.284 28.6465 41.9358 28.9165 42.4163 29.3971C42.8969 29.8776 43.1668 30.5294 43.1668 31.209V38.0421Z" fill="#5051DB"/>
<path d="M46.5833 38.042H44.875V32.9172C44.875 32.6907 44.7851 32.4734 44.6249 32.3132C44.4647 32.1531 44.2474 32.0631 44.0209 32.0631C43.7944 32.0631 43.5771 32.1531 43.4169 32.3132C43.2568 32.4734 43.1668 32.6907 43.1668 32.9172V38.042H41.4585V32.9172C41.4585 32.2376 41.7285 31.5859 42.209 31.1053C42.6896 30.6248 43.3413 30.3548 44.0209 30.3548C44.7005 30.3548 45.3523 30.6248 45.8328 31.1053C46.3134 31.5859 46.5833 32.2376 46.5833 32.9172V38.042Z" fill="#5051DB"/>
<path d="M38.0421 49.1459H36.3338V47.7878L32.3108 43.7648C32.153 43.6057 32.0641 43.391 32.0631 43.1669V38.8962C32.0502 38.444 32.1297 37.9939 32.2968 37.5735C32.4639 37.1532 32.7151 36.7713 33.0349 36.4514C33.3548 36.1316 33.7366 35.8804 34.157 35.7133C34.5774 35.5462 35.0275 35.4667 35.4797 35.4796V37.1879C35.2514 37.1728 35.0226 37.2067 34.8085 37.2872C34.5944 37.3677 34.4 37.493 34.2382 37.6547C34.0765 37.8165 33.9512 38.0109 33.8707 38.225C33.7902 38.4391 33.7563 38.668 33.7714 38.8962V42.8167L37.7944 46.8397C37.9522 46.9988 38.0412 47.2135 38.0421 47.4376V49.1459Z" fill="#5051DB"/>
<path d="M48.2918 49.1458H46.5835V47.4375C46.5829 47.3251 46.6044 47.2137 46.6469 47.1096C46.6894 47.0056 46.7521 46.9109 46.8312 46.8311L48.2918 45.3791V33.7713C48.2918 33.5448 48.2018 33.3276 48.0416 33.1674C47.8814 33.0072 47.6642 32.9172 47.4377 32.9172C47.2111 32.9172 46.9939 33.0072 46.8337 33.1674C46.6735 33.3276 46.5835 33.5448 46.5835 33.7713V38.042H44.8752V33.7713C44.8752 33.0917 45.1452 32.44 45.6258 31.9594C46.1063 31.4789 46.7581 31.2089 47.4377 31.2089C48.1173 31.2089 48.769 31.4789 49.2496 31.9594C49.7301 32.44 50.0001 33.0917 50.0001 33.7713V45.7293C50.0007 45.8417 49.9792 45.9531 49.9367 46.0572C49.8942 46.1612 49.8315 46.2559 49.7524 46.3357L48.2918 47.7877V49.1458Z" fill="#5051DB"/>
<path d="M14.1261 28.6465C13.4465 28.6465 12.7948 28.3765 12.3142 27.896C11.8337 27.4154 11.5637 26.7637 11.5637 26.0841V18.3969H13.272V26.0841C13.272 26.3106 13.362 26.5279 13.5222 26.6881C13.6824 26.8482 13.8996 26.9382 14.1261 26.9382C14.3527 26.9382 14.5699 26.8482 14.7301 26.6881C14.8903 26.5279 14.9803 26.3106 14.9803 26.0841V20.9593H16.6885V26.0841C16.6885 26.7637 16.4186 27.4154 15.938 27.896C15.4575 28.3765 14.8057 28.6465 14.1261 28.6465Z" fill="#5051DB"/>
<path d="M17.5428 30.3548C16.8632 30.3548 16.2114 30.0848 15.7309 29.6043C15.2503 29.1237 14.9803 28.472 14.9803 27.7924V20.9593H16.6886V27.7924C16.6886 28.0189 16.7786 28.2362 16.9388 28.3964C17.099 28.5565 17.3162 28.6465 17.5428 28.6465C17.7693 28.6465 17.9865 28.5565 18.1467 28.3964C18.3069 28.2362 18.3969 28.0189 18.3969 27.7924V20.9593H20.1052V27.7924C20.1052 28.472 19.8352 29.1237 19.3547 29.6043C18.8741 30.0848 18.2224 30.3548 17.5428 30.3548Z" fill="#5051DB"/>
<path d="M20.9593 28.6465C20.2797 28.6465 19.6279 28.3766 19.1474 27.896C18.6668 27.4155 18.3969 26.7637 18.3969 26.0841V20.9593H20.1051V26.0841C20.1051 26.3106 20.1951 26.5279 20.3553 26.6881C20.5155 26.8483 20.7327 26.9383 20.9593 26.9383C21.1858 26.9383 21.403 26.8483 21.5632 26.6881C21.7234 26.5279 21.8134 26.3106 21.8134 26.0841V20.9593H23.5217V26.0841C23.5217 26.7637 23.2517 27.4155 22.7712 27.896C22.2906 28.3766 21.6389 28.6465 20.9593 28.6465Z" fill="#5051DB"/>
<path d="M12.4179 23.5217C11.9657 23.5347 11.5156 23.4552 11.0953 23.2881C10.6749 23.1209 10.293 22.8698 9.97317 22.5499C9.65329 22.23 9.4021 21.8482 9.23499 21.4278C9.06789 21.0074 8.98839 20.5573 9.00137 20.1051V15.8344C9.00072 15.722 9.02226 15.6106 9.06477 15.5065C9.10728 15.4025 9.16991 15.3078 9.24907 15.228L13.2721 11.2135V9.85547H14.9803V11.5637C14.981 11.6762 14.9594 11.7876 14.9169 11.8917C14.8744 11.9957 14.8118 12.0904 14.7326 12.1702L10.7096 16.1846V20.1051C10.6945 20.3334 10.7284 20.5622 10.8089 20.7763C10.8894 20.9904 11.0147 21.1848 11.1765 21.3466C11.3382 21.5083 11.5326 21.6336 11.7467 21.7142C11.9608 21.7947 12.1897 21.8285 12.4179 21.8134V23.5217Z" fill="#5051DB"/>
<path d="M24.3759 27.7924C23.6963 27.7924 23.0445 27.5224 22.564 27.0419C22.0834 26.5613 21.8135 25.9095 21.8135 25.23V20.9593H23.5218V25.23C23.5218 25.4565 23.6117 25.6737 23.7719 25.8339C23.9321 25.9941 24.1494 26.0841 24.3759 26.0841C24.6024 26.0841 24.8197 25.9941 24.9799 25.8339C25.14 25.6737 25.23 25.4565 25.23 25.23V13.6222L23.7695 12.1702C23.6903 12.0904 23.6277 11.9957 23.5852 11.8917C23.5426 11.7876 23.5211 11.6762 23.5218 11.5637V9.85547H25.23V11.2135L26.6906 12.6741C26.8484 12.8332 26.9374 13.0479 26.9383 13.272V25.23C26.9383 25.9095 26.6683 26.5613 26.1878 27.0419C25.7072 27.5224 25.0555 27.7924 24.3759 27.7924Z" fill="#5051DB"/>
<path d="M26.0841 39.7503H20.9593V38.042H26.0841C26.3106 38.042 26.5279 37.9521 26.6881 37.7919C26.8482 37.6317 26.9382 37.4144 26.9382 37.1879C26.9382 36.9614 26.8482 36.7441 26.6881 36.5839C26.5279 36.4238 26.3106 36.3338 26.0841 36.3338H18.3969V34.6255H26.0841C26.7637 34.6255 27.4154 34.8955 27.896 35.376C28.3765 35.8565 28.6465 36.5083 28.6465 37.1879C28.6465 37.8675 28.3765 38.5193 27.896 38.9998C27.4154 39.4803 26.7637 39.7503 26.0841 39.7503Z" fill="#5051DB"/>
<path d="M27.7923 43.1669H20.9592V41.4586H27.7923C28.0189 41.4586 28.2361 41.3686 28.3963 41.2084C28.5565 41.0483 28.6465 40.831 28.6465 40.6045C28.6465 40.3779 28.5565 40.1607 28.3963 40.0005C28.2361 39.8403 28.0189 39.7503 27.7923 39.7503H20.9592V38.0421H27.7923C28.4719 38.0421 29.1237 38.312 29.6042 38.7926C30.0848 39.2731 30.3547 39.9249 30.3547 40.6045C30.3547 41.2841 30.0848 41.9358 29.6042 42.4164C29.1237 42.8969 28.4719 43.1669 27.7923 43.1669Z" fill="#5051DB"/>
<path d="M26.0841 46.5834H20.9592V44.8752H26.0841C26.3106 44.8752 26.5278 44.7852 26.688 44.625C26.8482 44.4648 26.9382 44.2476 26.9382 44.021C26.9382 43.7945 26.8482 43.5772 26.688 43.4171C26.5278 43.2569 26.3106 43.1669 26.0841 43.1669H20.9592V41.4586H26.0841C26.7637 41.4586 27.4154 41.7286 27.896 42.2091C28.3765 42.6897 28.6465 43.3414 28.6465 44.021C28.6465 44.7006 28.3765 45.3524 27.896 45.8329C27.4154 46.3135 26.7637 46.5834 26.0841 46.5834Z" fill="#5051DB"/>
<path d="M11.5637 38.042H9.85547V36.3338H11.2135L15.2365 32.3108C15.3956 32.153 15.6104 32.064 15.8344 32.0631H20.1051C20.5573 32.0501 21.0074 32.1296 21.4278 32.2967C21.8482 32.4638 22.23 32.715 22.5499 33.0349C22.8698 33.3548 23.1209 33.7366 23.2881 34.157C23.4552 34.5774 23.5347 35.0274 23.5217 35.4796H21.8134C21.8285 35.2514 21.7947 35.0226 21.7142 34.8084C21.6336 34.5943 21.5083 34.3999 21.3466 34.2382C21.1848 34.0764 20.9904 33.9511 20.7763 33.8706C20.5622 33.7901 20.3334 33.7563 20.1051 33.7714H16.1846L12.1702 37.7943C12.0904 37.8735 11.9957 37.9361 11.8917 37.9786C11.7876 38.0211 11.6762 38.0427 11.5637 38.042Z" fill="#5051DB"/>
<path d="M25.23 50H13.272C13.1596 50.0007 13.0482 49.9791 12.9441 49.9366C12.84 49.8941 12.7454 49.8315 12.6656 49.7523L11.2135 48.2917H9.85547V46.5835H11.5637C11.6762 46.5828 11.7876 46.6044 11.8917 46.6469C11.9957 46.6894 12.0904 46.752 12.1702 46.8312L13.6222 48.2917H25.23C25.4565 48.2917 25.6737 48.2017 25.8339 48.0416C25.9941 47.8814 26.0841 47.6641 26.0841 47.4376C26.0841 47.2111 25.9941 46.9938 25.8339 46.8336C25.6737 46.6734 25.4565 46.5835 25.23 46.5835H20.9593V44.8752H25.23C25.9095 44.8752 26.5613 45.1452 27.0419 45.6257C27.5224 46.1062 27.7924 46.758 27.7924 47.4376C27.7924 48.1172 27.5224 48.769 27.0419 49.2495C26.5613 49.73 25.9095 50 25.23 50Z" fill="#5051DB"/>
<path d="M38.0421 16.6886H32.9173C32.2377 16.6886 31.5859 16.4186 31.1054 15.9381C30.6248 15.4576 30.3549 14.8058 30.3549 14.1262C30.3549 13.4466 30.6248 12.7948 31.1054 12.3143C31.5859 11.8337 32.2377 11.5638 32.9173 11.5638H40.6045V13.2721H32.9173C32.6907 13.2721 32.4735 13.362 32.3133 13.5222C32.1531 13.6824 32.0631 13.8997 32.0631 14.1262C32.0631 14.3527 32.1531 14.57 32.3133 14.7302C32.4735 14.8903 32.6907 14.9803 32.9173 14.9803H38.0421V16.6886Z" fill="#5051DB"/>
<path d="M38.042 20.1052H31.2089C30.5293 20.1052 29.8775 19.8352 29.397 19.3547C28.9165 18.8741 28.6465 18.2224 28.6465 17.5428C28.6465 16.8632 28.9165 16.2114 29.397 15.7309C29.8775 15.2503 30.5293 14.9803 31.2089 14.9803H38.042V16.6886H31.2089C30.9824 16.6886 30.7651 16.7786 30.6049 16.9388C30.4447 17.099 30.3548 17.3162 30.3548 17.5428C30.3548 17.7693 30.4447 17.9865 30.6049 18.1467C30.7651 18.3069 30.9824 18.3969 31.2089 18.3969H38.042V20.1052Z" fill="#5051DB"/>
<path d="M38.0421 23.5217H32.9173C32.2377 23.5217 31.5859 23.2517 31.1054 22.7712C30.6248 22.2906 30.3549 21.6389 30.3549 20.9593C30.3549 20.2797 30.6248 19.6279 31.1054 19.1474C31.5859 18.6668 32.2377 18.3969 32.9173 18.3969H38.0421V20.1051H32.9173C32.6907 20.1051 32.4735 20.1951 32.3133 20.3553C32.1531 20.5155 32.0631 20.7327 32.0631 20.9593C32.0631 21.1858 32.1531 21.403 32.3133 21.5632C32.4735 21.7234 32.6907 21.8134 32.9173 21.8134H38.0421V23.5217Z" fill="#5051DB"/>
<path d="M49.1459 14.9803H47.4376C47.3252 14.981 47.2137 14.9594 47.1097 14.9169C47.0056 14.8744 46.9109 14.8118 46.8311 14.7326L42.8167 10.7096H38.8962C38.668 10.6945 38.4391 10.7284 38.225 10.8089C38.0109 10.8894 37.8165 11.0147 37.6547 11.1765C37.493 11.3382 37.3677 11.5326 37.2872 11.7467C37.2067 11.9608 37.1728 12.1897 37.1879 12.4179H35.4796C35.4667 11.9657 35.5462 11.5156 35.7133 11.0953C35.8804 10.6749 36.1316 10.293 36.4514 9.97317C36.7713 9.65329 37.1532 9.4021 37.5735 9.23499C37.9939 9.06789 38.444 8.98839 38.8962 9.00137H43.1669C43.2793 9.00072 43.3907 9.02226 43.4948 9.06477C43.5989 9.10728 43.6935 9.16991 43.7733 9.24907L47.7878 13.2721H49.1459V14.9803Z" fill="#5051DB"/>
<path d="M45.7293 26.9382H33.7714C33.0918 26.9382 32.44 26.6683 31.9595 26.1877C31.479 25.7072 31.209 25.0554 31.209 24.3758C31.209 23.6962 31.479 23.0445 31.9595 22.5639C32.44 22.0834 33.0918 21.8134 33.7714 21.8134H38.0421V23.5217H33.7714C33.5449 23.5217 33.3276 23.6117 33.1674 23.7719C33.0072 23.932 32.9173 24.1493 32.9173 24.3758C32.9173 24.6024 33.0072 24.8196 33.1674 24.9798C33.3276 25.14 33.5449 25.23 33.7714 25.23H45.3791L46.8397 23.7694C46.9988 23.6116 47.2135 23.5226 47.4376 23.5217H49.1459V25.23H47.7878L46.3272 26.6905C46.1681 26.8483 45.9534 26.9373 45.7293 26.9382Z" fill="#5051DB"/>
<circle cx="30" cy="30" r="30" fill="#5051DB" fill-opacity="0.04"/>
<circle cx="30" cy="30" r="29" stroke="#5051DB" stroke-opacity="0.08" stroke-width="2"/>
</svg>
