<svg width="60" height="60" viewBox="0 0 60 60" fill="none" xmlns="http://www.w3.org/2000/svg">
<circle cx="30" cy="30" r="30" fill="#5051DB" fill-opacity="0.04"/>
<circle cx="30" cy="30" r="29" stroke="#5051DB" stroke-opacity="0.08" stroke-width="2"/>
<path d="M51.9818 28.8H49.1527C49.059 26.8249 48.6733 24.9287 48.0316 23.1492L50.6428 22.0671C51.1157 21.8714 51.3401 21.329 51.1444 20.8551C50.9488 20.3813 50.4036 20.1588 49.9325 20.3535L47.3204 21.4356C46.4895 19.6794 45.4074 18.0715 44.1139 16.65L46.1186 14.6452C46.4812 14.2826 46.4812 13.6957 46.1186 13.334C45.7561 12.9715 45.17 12.9715 44.8075 13.334L42.8027 15.3388C41.3821 14.0462 39.7733 12.9631 38.018 12.1323L39.1001 9.51923C39.2958 9.04633 39.0714 8.50387 38.5984 8.30822C38.1283 8.11349 37.5822 8.33603 37.3865 8.8108L36.3053 11.4211C34.5259 10.7794 32.6296 10.3937 30.6536 10.3V7.47274C30.6536 6.96089 30.2382 6.54547 29.7263 6.54547C29.2144 6.54547 28.799 6.96089 28.799 7.47274V10.3019C26.8239 10.3955 24.9277 10.7813 23.1482 11.4229L22.068 8.81173C21.8723 8.33789 21.3298 8.11442 20.8569 8.30914C20.3831 8.5048 20.1587 9.04725 20.3544 9.52016L21.4365 12.1323C19.6802 12.9631 18.0723 14.0462 16.6508 15.3388L14.6461 13.334C14.2835 12.9715 13.6975 12.9715 13.3349 13.334C12.9723 13.6966 12.9723 14.2826 13.3349 14.6452L15.3397 16.65C14.047 18.0715 12.964 19.6794 12.1332 21.4356L9.52196 20.3535C9.04905 20.1578 8.50659 20.3813 8.31001 20.8551C8.11436 21.3281 8.33876 21.8705 8.81167 22.0671L11.4219 23.1492C10.7803 24.9287 10.3945 26.824 10.3009 28.8H7.47268C6.96083 28.8 6.54541 29.2154 6.54541 29.7273C6.54541 30.2391 6.96083 30.6546 7.47268 30.6546H10.3018C10.3954 32.6306 10.7812 34.5269 11.4229 36.3072L8.81259 37.3875C8.33968 37.5831 8.11436 38.1256 8.31001 38.5994C8.45745 38.9564 8.80332 39.1716 9.16681 39.1716C9.28457 39.1716 9.40512 39.1493 9.52103 39.1011L12.1341 38.019C12.9649 39.7752 14.047 41.3831 15.3397 42.8037L13.3349 44.8085C12.9723 45.171 12.9723 45.7571 13.3349 46.1196C13.5157 46.3004 13.7531 46.3913 13.9905 46.3913C14.2279 46.3913 14.4652 46.3004 14.6461 46.1196L16.6508 44.1149C18.0723 45.4084 19.6812 46.4905 21.4365 47.3214L20.3544 49.9335C20.1587 50.4073 20.3831 50.9498 20.856 51.1454C20.9719 51.1937 21.0925 51.2159 21.2102 51.2159C21.5746 51.2159 21.9196 51.0008 22.067 50.6438L23.1482 48.0326C24.9277 48.6743 26.823 49.06 28.799 49.1537V51.9818C28.799 52.4946 29.2144 52.9091 29.7263 52.9091C30.2382 52.9091 30.6536 52.4946 30.6536 51.9818V49.1527C32.6296 49.0591 34.5249 48.6733 36.3053 48.0317L37.3865 50.6419C37.5339 50.9989 37.8798 51.2141 38.2433 51.2141C38.362 51.2141 38.4825 51.1918 38.5984 51.1436C39.0714 50.9479 39.2958 50.4055 39.1001 49.9316L38.018 47.3195C39.7742 46.4887 41.3821 45.4065 42.8027 44.1139L44.8075 46.1187C44.9883 46.2995 45.2257 46.3904 45.463 46.3904C45.7004 46.3904 45.9378 46.2995 46.1186 46.1187C46.4812 45.7561 46.4812 45.1701 46.1186 44.8075L44.1139 42.8028C45.4065 41.3822 46.4895 39.7734 47.3194 38.018L49.9325 39.0992C50.0484 39.1475 50.169 39.1697 50.2876 39.1697C50.6521 39.1697 50.997 38.9546 51.1444 38.5976C51.3401 38.1237 51.1157 37.5813 50.6428 37.3856L48.0316 36.3044C48.6733 34.525 49.059 32.6297 49.1527 30.6536H51.9818C52.4946 30.6536 52.909 30.2382 52.909 29.7264C52.909 29.2145 52.4946 28.8 51.9818 28.8ZM29.7272 47.3455C20.0122 47.3455 12.109 39.4423 12.109 29.7273C12.109 20.0123 20.0122 12.1091 29.7272 12.1091C39.4423 12.1091 47.3454 20.0123 47.3454 29.7273C47.3454 39.4423 39.4423 47.3455 29.7272 47.3455Z" fill="#5051DB"/>
<path d="M29.7272 26.9455C32.2837 26.9455 34.3635 24.8656 34.3635 22.3092C34.3635 19.7527 32.2837 17.6728 29.7272 17.6728C27.1707 17.6728 25.0908 19.7527 25.0908 22.3092C25.0908 24.8656 27.1707 26.9455 29.7272 26.9455ZM29.7272 19.5273C31.2609 19.5273 32.509 20.7754 32.509 22.3092C32.509 23.8429 31.2609 25.091 29.7272 25.091C28.1935 25.091 26.9454 23.8429 26.9454 22.3092C26.9454 20.7754 28.1935 19.5273 29.7272 19.5273Z" fill="#5051DB"/>
<path d="M33.4364 28.8001H26.0182C23.4617 28.8001 21.3818 30.88 21.3818 33.4365V39.0001C21.3818 39.5129 21.7973 39.9274 22.3091 39.9274C22.821 39.9274 23.2364 39.5129 23.2364 39.0001V33.4365C23.2364 31.9028 24.4845 30.6547 26.0182 30.6547H33.4364C34.9701 30.6547 36.2182 31.9028 36.2182 33.4365V39.0001C36.2182 39.5129 36.6327 39.9274 37.1455 39.9274C37.6583 39.9274 38.0727 39.5129 38.0727 39.0001V33.4365C38.0727 30.88 35.9929 28.8001 33.4364 28.8001Z" fill="#5051DB"/>
</svg>
