<svg width="60" height="60" viewBox="0 0 60 60" fill="none" xmlns="http://www.w3.org/2000/svg">
<circle cx="30" cy="30" r="30" fill="#5051DB" fill-opacity="0.04"/>
<circle cx="30" cy="30" r="29" stroke="#5051DB" stroke-opacity="0.08" stroke-width="2"/>
<path d="M56.1251 32.5041L49.8795 16.863C49.718 16.459 49.2628 16.261 48.8572 16.4168L42.189 18.9883C41.9918 19.0642 41.8334 19.2157 41.7482 19.4094C41.6633 19.6027 41.6587 19.822 41.7361 20.0188L42.1435 21.0559L39.1108 21.872L34.6484 20.3721C32.6348 19.6949 30.4663 19.7792 28.5231 20.5609C28.1009 20.2397 27.5913 20.0246 26.9927 19.9343C26.0738 19.7952 25.0782 19.9951 24.1907 20.4968L20.373 22.6523L18.7759 21.8667L19.3681 20.6858C19.4626 20.4968 19.4781 20.2779 19.4107 20.0776C19.3437 19.877 19.1988 19.7119 19.0093 19.6186L12.6015 16.4629C12.211 16.2699 11.7407 16.4284 11.5435 16.815L3.90448 31.8362C3.70613 32.2267 3.86148 32.7039 4.25197 32.9027L10.7025 36.1847C10.8152 36.242 10.9384 36.2711 11.0623 36.2711C11.1456 36.2711 11.2293 36.2579 11.3103 36.2316C11.5109 36.1653 11.6767 36.022 11.7717 35.8333L12.26 34.8596L14.4264 36.2092C14.3468 36.5115 14.3265 36.8288 14.3765 37.147C14.4722 37.7571 14.8015 38.2925 15.3039 38.6555L15.8614 39.0576C16.2712 39.3539 16.7473 39.4965 17.2196 39.4965C17.2224 39.4965 17.2252 39.4955 17.228 39.4955C17.2356 39.6318 17.2441 39.7683 17.273 39.9017C17.4137 40.551 17.7925 41.1011 18.3399 41.4505C18.7416 41.707 19.1941 41.829 19.6474 41.829C19.7056 41.829 19.7627 41.8108 19.8209 41.8068C19.8248 41.8599 19.8194 41.9126 19.8267 41.9657C19.9154 42.6084 20.2451 43.174 20.7553 43.5575C21.1838 43.8795 21.6897 44.0344 22.198 44.0344C22.461 44.0344 22.7206 43.978 22.9741 43.8966C23.1462 44.3121 23.4279 44.6903 23.8053 44.9739C24.2732 45.3256 24.8179 45.4968 25.3436 45.4968C26.0115 45.4968 26.6487 45.2202 27.0582 44.6849L27.477 44.1372C28.3539 44.8577 29.9396 45.9435 31.5442 45.9435C31.755 45.9435 31.9661 45.9245 32.1757 45.8838C33.1593 45.6922 33.9389 45.0675 34.4978 44.0244C34.7218 44.0712 34.9489 44.1045 35.1822 44.1045C35.1861 44.1045 35.19 44.1045 35.1935 44.1045C36.4811 44.0999 37.6145 43.3325 38.5717 41.8402C38.8236 41.8975 39.0772 41.9382 39.3331 41.9382C39.3978 41.9382 39.4633 41.9363 39.5284 41.932C40.8175 41.8513 41.88 40.9992 42.697 39.4168C42.8405 39.4439 42.984 39.4703 43.1246 39.4756C43.1594 39.4771 43.1943 39.4775 43.2288 39.4775C43.9865 39.4775 44.6513 39.1587 45.1557 38.5513C45.9394 37.608 46.2934 36.6685 46.2078 35.7589C46.1887 35.5541 46.1466 35.3533 46.0832 35.1575L47.5135 34.7269L47.9279 35.7818C48.0049 35.9786 48.1576 36.1363 48.3517 36.2199C48.452 36.2633 48.5589 36.285 48.6662 36.285C48.7662 36.285 48.8665 36.266 48.9614 36.2281L55.6835 33.5345C56.0898 33.3718 56.2874 32.9104 56.1251 32.5041ZM10.711 34.4089L5.67874 31.8482L12.603 18.2325L17.5915 20.6889L16.9971 21.8742C16.9968 21.8748 16.9963 21.875 16.996 21.8755C16.9958 21.876 16.9959 21.8765 16.9957 21.877L10.711 34.4089ZM16.2329 37.3689C16.076 37.2558 15.9737 37.0892 15.9439 36.9006C15.9144 36.7135 15.9605 36.5256 16.0737 36.3718C16.2162 36.1773 16.439 36.0743 16.6652 36.0743C16.8155 36.0743 16.9674 36.1196 17.0979 36.2141L17.655 36.6158C17.8115 36.729 17.9142 36.8955 17.944 37.0846C17.9734 37.2717 17.9273 37.4596 17.8142 37.6134C17.5775 37.9365 17.1177 38.0074 16.7903 37.7714L16.2329 37.3689ZM19.1937 40.1132C18.9528 39.959 18.8594 39.7305 18.8238 39.5658C18.7626 39.2834 18.8249 38.9716 18.995 38.7097L19.4444 38.0174C19.7717 37.515 20.3946 37.3329 20.8324 37.6134C21.0737 37.7672 21.1667 37.9957 21.2028 38.1604C21.264 38.4428 21.2016 38.755 21.0319 39.0161L20.5818 39.7088C20.2556 40.2116 19.6315 40.3925 19.1937 40.1132ZM21.7091 42.2892C21.5394 42.1618 21.429 41.97 21.3988 41.7496C21.3631 41.4912 21.4363 41.2278 21.6049 41.0073L23.113 39.0347C23.4396 38.6078 24.0191 38.4951 24.4042 38.7852C24.5738 38.9127 24.6839 39.1041 24.7141 39.3245C24.7497 39.5829 24.6765 39.8467 24.5084 40.0671L24.4028 40.2052C24.4024 40.2057 24.4018 40.2061 24.4015 40.2066L23.2044 41.7721C23.2042 41.7724 23.204 41.7728 23.2037 41.7732L22.9999 42.0397C22.6733 42.467 22.0926 42.5782 21.7091 42.2892ZM24.7586 43.7055C24.5491 43.5479 24.4111 43.3298 24.3805 43.107C24.3666 43.0064 24.3702 42.8602 24.4648 42.7363L25.616 41.2306L25.662 41.1704C25.7608 41.0414 25.9251 40.9771 26.1095 40.9771C26.302 40.9771 26.5162 41.0472 26.701 41.1859C26.9106 41.3436 27.0485 41.5617 27.0791 41.7844C27.0931 41.8852 27.0896 42.0316 26.9947 42.1556L25.7976 43.721C25.5966 43.9845 25.1205 43.9767 24.7586 43.7055ZM43.935 37.5375C43.7231 37.7931 43.4879 37.9059 43.185 37.89C41.5545 37.8284 38.7617 34.7285 37.3842 32.7888C37.1308 32.4312 36.635 32.3479 36.2782 32.6009C35.921 32.8546 35.8365 33.3497 36.0903 33.7069C36.4147 34.1646 38.7873 37.4283 41.2191 38.8323C40.6943 39.7963 40.0936 40.3065 39.4296 40.3484C37.569 40.4813 35.0749 37.1869 34.3559 36.0278C34.125 35.6555 33.6369 35.5404 33.2639 35.7709C32.8916 36.0018 32.7765 36.4903 33.0066 36.8626C33.2518 37.2591 34.9452 39.9139 37.0822 41.218C36.4819 42.0738 35.8475 42.5146 35.1896 42.5178C35.1873 42.5178 35.1849 42.5178 35.1822 42.5178C33.5931 42.5178 31.889 40.1864 31.3656 39.2869C31.1456 38.9081 30.659 38.7783 30.2817 38.9995C29.9028 39.2191 29.7734 39.7038 29.9931 40.0826C30.1649 40.3794 31.3407 42.3284 33.0216 43.3996C32.7094 43.9258 32.3328 44.2362 31.8739 44.3261C30.7549 44.5437 29.2779 43.564 28.4197 42.852C28.6277 42.4677 28.7137 42.0241 28.6512 41.5683C28.5632 40.9295 28.2002 40.3278 27.6548 39.9176C27.2404 39.6061 26.7658 39.4406 26.2972 39.4059C26.2952 39.3066 26.2998 39.2076 26.2861 39.1079C26.1978 38.4656 25.8681 37.9004 25.3579 37.5169C24.5511 36.9106 23.4685 36.8971 22.6164 37.3956C22.4264 36.9344 22.1079 36.5446 21.6862 36.2757C20.9509 35.806 20.0452 35.7886 19.2747 36.145C19.1111 35.8275 18.8827 35.5454 18.5836 35.3293L18.0265 34.9276C17.2081 34.3358 16.1311 34.3653 15.3438 34.9114L12.9742 33.4353L18.0644 23.2853L20.0483 24.2611C20.1591 24.3153 20.2788 24.3425 20.3985 24.3425C20.5333 24.3425 20.6678 24.308 20.7886 24.2398L24.9709 21.8782C25.5516 21.5505 26.1858 21.4184 26.756 21.5032C26.7565 21.5033 26.7569 21.5035 26.7573 21.5036C25.462 22.4121 24.4712 23.6449 23.9339 25.0324C22.9181 27.6566 24.145 29.0675 24.943 29.4506C25.8286 29.8644 26.6685 29.9155 27.4378 29.6029C28.6256 29.1217 29.3024 27.8987 29.6615 26.9574C29.7762 26.656 30.0055 26.4158 30.3061 26.2817C30.6424 26.1314 31.0255 26.1384 31.3567 26.3011L36.1813 28.6735C38.1237 29.6288 39.874 30.8983 41.3844 32.4475C42.1755 33.2587 43.0386 34.0517 43.9493 34.8032C44.3631 35.1449 44.5916 35.5164 44.628 35.9073C44.6726 36.3819 44.4398 36.93 43.935 37.5375ZM45.1627 33.7777C45.0935 33.7123 45.0353 33.6423 44.9596 33.5798C44.0927 32.8639 43.2718 32.1105 42.5202 31.3395C40.8835 29.661 38.9864 28.285 36.8817 27.2494L32.0567 24.8771C31.3025 24.5059 30.4285 24.4889 29.6595 24.8325C28.9708 25.1397 28.4447 25.6937 28.1785 26.3925C27.9767 26.9217 27.5351 27.8515 26.8424 28.1319C26.4911 28.2737 26.0893 28.235 25.6411 28.0258C25.5427 27.9716 24.7029 27.4416 25.4137 25.6054C25.8999 24.3498 26.868 23.2469 28.1402 22.4996C29.9567 21.4316 32.1458 21.2042 34.1425 21.8759L38.8322 23.4526C38.981 23.5022 39.141 23.5076 39.2913 23.4669L42.7273 22.5422L46.9315 33.2451L45.1627 33.7777ZM49.1125 34.4581L43.505 20.1815L48.6968 18.1794L54.3574 32.3565L49.1125 34.4581Z" fill="#5051DB"/>
<path d="M9.79204 29.9579C9.4984 29.8309 9.14935 29.9025 8.92738 30.1245C8.77668 30.2752 8.69727 30.4817 8.69727 30.6878C8.69727 30.8943 8.77668 31.1004 8.92738 31.2511C9.07807 31.394 9.28417 31.4812 9.49065 31.4812C9.69674 31.4812 9.90322 31.394 10.0458 31.2511C10.1965 31.1004 10.284 30.8943 10.284 30.6878C10.284 30.4817 10.1965 30.2752 10.0458 30.1245C9.9745 30.0532 9.88734 29.9975 9.79204 29.9579Z" fill="#5051DB"/>
<path d="M50.913 31.4812C51.1191 31.4812 51.3256 31.394 51.4681 31.2511C51.6192 31.1004 51.7064 30.8943 51.7064 30.6878C51.7064 30.4817 51.6192 30.2752 51.4681 30.1245C51.2539 29.9025 50.8971 29.8309 50.6116 29.9579C50.5082 29.9975 50.421 30.0532 50.3497 30.1245C50.199 30.2752 50.1196 30.4817 50.1196 30.6878C50.1196 30.8943 50.199 31.1004 50.3497 31.2511C50.5004 31.394 50.7065 31.4812 50.913 31.4812Z" fill="#5051DB"/>
</svg>
