<svg width="60" height="60" viewBox="0 0 60 60" fill="none" xmlns="http://www.w3.org/2000/svg">
<circle cx="30" cy="30" r="30" fill="#5051DB" fill-opacity="0.04"/>
<circle cx="30" cy="30" r="29" stroke="#5051DB" stroke-opacity="0.08" stroke-width="2"/>
<path d="M18.387 37.0967C15.8973 37.0967 13.8708 39.1232 13.8708 41.6129C13.8708 44.1025 15.8973 46.129 18.387 46.129C20.8767 46.129 22.9031 44.1025 22.9031 41.6129C22.9031 39.1232 20.8767 37.0967 18.387 37.0967ZM18.387 44.8387C16.6083 44.8387 15.1612 43.3916 15.1612 41.6129C15.1612 39.8342 16.6083 38.3871 18.387 38.3871C20.1657 38.3871 21.6128 39.8342 21.6128 41.6129C21.6128 43.3916 20.1657 44.8387 18.387 44.8387Z" fill="#5959FF"/>
<path d="M45.4839 37.0968V30.6452H47.8181L45.2374 25.4839H39.0323V23.7548L40.9542 21.0632C41.8077 19.8697 42.2581 18.4632 42.2581 16.9968C42.2581 13.1387 39.1194 10 35.2613 10H35.0606C31.2032 10 28.0645 13.1387 28.0645 16.9968C28.0645 18.4632 28.5148 19.8697 29.3684 21.0639L31.2903 23.7548V25.4839H26.3755L23.7948 30.6452H26.129V37.0968H25.7323L22.5935 33.9581L21.2155 34.7839L20.8265 33.2258H15.9477L15.5587 34.7839L14.1806 33.9581L10.7323 37.4065L11.5581 38.7845L10 39.1735V44.0523L11.5581 44.4413L10.7323 45.8194L14.1813 49.2684L15.5594 48.4426L15.9477 50H20.8265L21.2155 48.4419L22.5935 49.2677L25.7323 46.129H45.4839C47.9735 46.129 50 44.1026 50 41.6129C50 39.1232 47.9735 37.0968 45.4839 37.0968ZM44.1935 37.0968H35.8064V28.8619L36.6981 30.6452H44.1935V37.0968ZM44.8387 41.6129C44.8387 43.3916 43.3916 44.8387 41.6129 44.8387C39.8342 44.8387 38.3871 43.3916 38.3871 41.6129C38.3871 39.8342 39.8342 38.3871 41.6129 38.3871C43.3916 38.3871 44.8387 39.8342 44.8387 41.6129ZM33.871 44.8387C32.0923 44.8387 30.6452 43.3916 30.6452 41.6129C30.6452 39.8342 32.0923 38.3871 33.871 38.3871C35.6497 38.3871 37.0968 39.8342 37.0968 41.6129C37.0968 43.3916 35.6497 44.8387 33.871 44.8387ZM37.0252 38.3871H38.4581C38.1813 38.6581 37.9419 38.9652 37.7413 39.2987C37.5413 38.9652 37.3019 38.6581 37.0252 38.3871ZM45.7303 29.3548H37.4955L36.2052 26.7742H44.44L45.7303 29.3548ZM30.4174 20.3135C29.7219 19.34 29.3548 18.1923 29.3548 16.9968C29.3548 13.8503 31.9148 11.2903 35.0613 11.2903H35.2619C38.4077 11.2903 40.9677 13.8503 40.9677 16.9968C40.9677 18.1929 40.6006 19.34 39.9052 20.3142L38.0555 22.9032H35.8064V18.9135C36.5555 18.6465 37.0968 17.9368 37.0968 17.0968C37.0968 16.0297 36.2284 15.1613 35.1613 15.1613C34.0942 15.1613 33.2258 16.0297 33.2258 17.0968C33.2258 17.9368 33.7671 18.6465 34.5161 18.9135V22.9032H32.2671L30.4174 20.3135ZM34.5161 17.0968C34.5161 16.7406 34.8052 16.4516 35.1613 16.4516C35.5174 16.4516 35.8064 16.7406 35.8064 17.0968C35.8064 17.4529 35.5174 17.7419 35.1613 17.7419C34.8052 17.7419 34.5161 17.4529 34.5161 17.0968ZM32.5806 24.1935H37.7419V25.4839H36.2052H34.1174H32.5806V24.1935ZM27.1729 26.7742H34.1174L32.8271 29.3548H25.8826L27.1729 26.7742ZM27.4194 30.6452H33.6245L34.5161 28.8619V37.0968H27.4194V30.6452ZM22.3929 47.6439L21 46.8077L20.2135 47.1277L19.8187 48.7097H16.9555L16.6419 47.4523L16.5116 47.1077L15.7742 46.8077L14.3813 47.6439L12.3561 45.6187L13.1923 44.2258L12.8723 43.4394L11.2903 43.0445V40.1813L12.5477 39.8677L12.8923 39.7374L13.1923 39L12.3561 37.6071L14.3813 35.5819L15.7742 36.4181L16.5606 36.0981L16.9555 34.5161H19.8187L20.1323 35.7735L20.2626 36.1181L21 36.4181L22.3929 35.5819L24.4181 37.6071L23.5819 39L23.9019 39.7864L25.4839 40.1813V43.0445L24.2265 43.3581L23.8819 43.4884L23.5819 44.2258L24.4181 45.6187L22.3929 47.6439ZM25.4542 44.8387L25.2161 44.4413L26.7742 44.0523V39.1735L25.2161 38.7845L25.4542 38.3871H30.7161C29.8774 39.2077 29.3548 40.3497 29.3548 41.6129C29.3548 42.8761 29.8774 44.0181 30.7168 44.8387H25.4542ZM37.0252 44.8387C37.3019 44.5677 37.5413 44.2606 37.7419 43.9271C37.9426 44.2606 38.1819 44.5684 38.4587 44.8387H37.0252ZM45.4839 44.8387H44.7671C45.6064 44.0181 46.129 42.8761 46.129 41.6129C46.129 40.3497 45.6064 39.2077 44.7671 38.3871H45.4839C47.2626 38.3871 48.7097 39.8342 48.7097 41.6129C48.7097 43.3916 47.2626 44.8387 45.4839 44.8387Z" fill="#5959FF"/>
<path d="M42.9034 34.5162H41.613V35.8065H42.9034V34.5162Z" fill="#5959FF"/>
<path d="M40.3225 34.5162H39.0322V35.8065H40.3225V34.5162Z" fill="#5959FF"/>
<path d="M47.4193 16.4516H43.5483V17.7419H47.4193V16.4516Z" fill="#5959FF"/>
<path d="M45.4554 10.41L42.1033 12.3448L42.7483 13.4623L46.1004 11.5276L45.4554 10.41Z" fill="#5959FF"/>
<path d="M24.8687 10.4091L24.2234 11.5265L27.5751 13.462L28.2204 12.3446L24.8687 10.4091Z" fill="#5959FF"/>
<path d="M26.774 16.4516H22.9031V17.7419H26.774V16.4516Z" fill="#5959FF"/>
<path d="M27.5756 20.7311L24.2239 22.6666L24.8692 23.784L28.2209 21.8485L27.5756 20.7311Z" fill="#5959FF"/>
<path d="M42.7488 20.7319L42.1035 21.8493L45.4552 23.7849L46.1005 22.6674L42.7488 20.7319Z" fill="#5959FF"/>
<path d="M41.613 43.5484C42.6801 43.5484 43.5485 42.68 43.5485 41.6129C43.5485 40.5458 42.6801 39.6774 41.613 39.6774C40.5459 39.6774 39.6775 40.5458 39.6775 41.6129C39.6775 42.68 40.5459 43.5484 41.613 43.5484ZM41.613 40.9678C41.9691 40.9678 42.2581 41.2568 42.2581 41.6129C42.2581 41.969 41.9691 42.2581 41.613 42.2581C41.2568 42.2581 40.9678 41.969 40.9678 41.6129C40.9678 41.2568 41.2568 40.9678 41.613 40.9678Z" fill="#5959FF"/>
<path d="M33.8708 39.6774C32.8037 39.6774 31.9353 40.5458 31.9353 41.6129C31.9353 42.68 32.8037 43.5484 33.8708 43.5484C34.9379 43.5484 35.8063 42.68 35.8063 41.6129C35.8063 40.5458 34.9379 39.6774 33.8708 39.6774ZM33.8708 42.2581C33.5147 42.2581 33.2256 41.969 33.2256 41.6129C33.2256 41.2568 33.5147 40.9678 33.8708 40.9678C34.2269 40.9678 34.5159 41.2568 34.5159 41.6129C34.5159 41.969 34.2269 42.2581 33.8708 42.2581Z" fill="#5959FF"/>
</svg>
