<svg width="124" height="48" viewBox="0 0 124 48" fill="none" xmlns="http://www.w3.org/2000/svg">
<path d="M26.5063 39.6303V7.35063C27.0818 6.72325 27.4622 5.94194 27.6012 5.10202C27.7402 4.26209 27.6318 3.39987 27.2891 2.62053C26.9464 1.84119 26.3843 1.17843 25.6714 0.713105C24.9585 0.247778 24.1256 0 23.2742 0C22.4229 0 21.5899 0.247778 20.877 0.713105C20.1641 1.17843 19.602 1.84119 19.2593 2.62053C18.9166 3.39987 18.8082 4.26209 18.9472 5.10202C19.0862 5.94194 19.4667 6.72325 20.0421 7.35063V39.6303C19.4472 40.2614 19.0501 41.0529 18.8998 41.9071C18.7494 42.7613 18.8525 43.6408 19.1962 44.4371C19.5399 45.2334 20.1092 45.9117 20.8339 46.3882C21.5585 46.8647 22.4069 47.1187 23.2742 47.1187C24.1415 47.1187 24.9899 46.8647 25.7145 46.3882C26.4392 45.9117 27.0086 45.2334 27.3522 44.4371C27.6959 43.6408 27.799 42.7613 27.6486 41.9071C27.4983 41.0529 27.1012 40.2614 26.5063 39.6303ZM23.2748 2.92631C23.564 2.92631 23.8466 3.01205 24.087 3.17269C24.3275 3.33333 24.5148 3.56166 24.6255 3.8288C24.7361 4.09594 24.7651 4.38989 24.7087 4.67348C24.6523 4.95708 24.513 5.21757 24.3086 5.42203C24.1041 5.62649 23.8436 5.76573 23.56 5.82214C23.2764 5.87855 22.9825 5.8496 22.7154 5.73894C22.4482 5.62829 22.2199 5.44091 22.0592 5.20049C21.8986 4.96007 21.8129 4.67742 21.8129 4.38827C21.8127 4.19623 21.8504 4.00605 21.9238 3.82861C21.9972 3.65116 22.1049 3.48993 22.2407 3.35414C22.3765 3.21835 22.5377 3.11067 22.7152 3.03726C22.8926 2.96385 23.0828 2.92614 23.2748 2.92631ZM23.2748 44.1538C22.9819 44.1541 22.6955 44.0674 22.4518 43.9048C22.2081 43.7422 22.0182 43.511 21.906 43.2404C21.7937 42.9698 21.7643 42.672 21.8214 42.3847C21.8785 42.0974 22.0195 41.8335 22.2267 41.6264C22.4338 41.4192 22.6977 41.2782 22.985 41.2211C23.2724 41.164 23.5702 41.1934 23.8407 41.3056C24.1113 41.4179 24.3425 41.6078 24.5051 41.8515C24.6677 42.0952 24.7544 42.3816 24.7541 42.6745C24.7541 43.0668 24.5983 43.4431 24.3209 43.7205C24.0434 43.998 23.6672 44.1538 23.2748 44.1538Z" fill="#5051DB"/>
<path d="M20.0396 23.6963C20.0396 23.7596 20.0396 23.8203 20.0396 23.8811C20.0396 23.9418 20.0396 23.9828 20.0296 24.0336C20.029 24.0406 20.029 24.0477 20.0296 24.0547L20.0148 24.2084C20.0148 24.2456 20.0073 24.2828 20.0024 24.32C20.0031 24.325 20.0031 24.33 20.0024 24.3349C20.0024 24.3572 20.0024 24.3796 19.9949 24.4019C19.9949 24.4453 19.9838 24.4874 19.9763 24.5259C19.9689 24.5742 19.9602 24.6214 19.9515 24.6697C19.9428 24.7181 19.9304 24.7863 19.9193 24.8458L19.8895 24.981C19.8672 25.0789 19.8412 25.1781 19.8139 25.2748L19.799 25.3306C19.7866 25.374 19.7742 25.4162 19.7606 25.4546C19.7469 25.4931 19.737 25.529 19.7246 25.5662C19.7147 25.5997 19.7023 25.632 19.6924 25.663L19.6564 25.7634L19.5919 25.9184C19.5733 25.9668 19.5535 26.0126 19.5336 26.061C19.5138 26.1094 19.5002 26.1379 19.4828 26.1763C19.4654 26.2148 19.463 26.2234 19.4518 26.247C19.3691 26.428 19.2778 26.6045 19.1778 26.7765C19.1542 26.8174 19.1294 26.8596 19.1034 26.9005C19.0773 26.9414 19.0612 26.9699 19.0389 27.0059L19.0116 27.048C18.9868 27.0865 18.962 27.1262 18.936 27.1634C18.9099 27.2006 18.8901 27.2316 18.8653 27.265L18.8355 27.306C18.8095 27.3432 18.7834 27.3804 18.7562 27.4163C18.7078 27.4808 18.6582 27.5403 18.6074 27.6073C18.5892 27.6304 18.5693 27.654 18.5478 27.678C18.492 27.7449 18.4362 27.8094 18.378 27.8739L18.3482 27.9061L18.2589 28.0028C18.182 28.0822 18.1039 28.1603 18.0233 28.2372L17.9514 28.3042C17.9055 28.3463 17.8572 28.3885 17.81 28.4282C17.7629 28.4678 17.7493 28.4815 17.7183 28.5063C17.6687 28.5484 17.6203 28.5869 17.5707 28.6303C17.5211 28.6737 17.4889 28.6935 17.4467 28.7233C17.4046 28.753 17.3488 28.7964 17.3004 28.8299L17.1925 28.9043C17.1578 28.9291 17.1218 28.9527 17.0859 28.9762C16.9958 29.0341 16.904 29.0899 16.8106 29.1436L16.6978 29.2081L16.6296 29.2453C16.5651 29.28 16.4981 29.3135 16.4312 29.347C16.4051 29.3606 16.3803 29.3718 16.353 29.3842L16.26 29.4288C16.2365 29.4388 16.2142 29.4499 16.1906 29.4586C16.11 29.4958 16.0282 29.5293 15.9426 29.5615C15.8955 29.5814 15.8471 29.5987 15.7988 29.6161L15.6748 29.6595L15.6115 29.6806L15.4962 29.7178L15.3722 29.755H15.361L15.299 29.7723L15.185 29.8033L15.0982 29.8244L15.0659 29.8318L14.9866 29.8504C14.9097 29.8678 14.8316 29.8839 14.7522 29.8988L14.6778 29.9112C14.5984 29.9261 14.5178 29.9372 14.4372 29.9484L14.343 29.9608L14.219 29.9744L14.0826 29.9856H14.0181C13.9363 29.993 13.8544 29.9968 13.7701 29.998H13.7081H13.418H13.356C13.2729 29.998 13.191 29.998 13.108 29.9856H13.0435L12.9096 29.9744L12.7856 29.9608L12.6913 29.9484C12.6095 29.9372 12.5301 29.9261 12.4508 29.9112L12.3764 29.8988C12.2937 29.8839 12.2156 29.8678 12.142 29.8504C12.1147 29.8442 12.0887 29.8393 12.0626 29.8318C12.0517 29.8301 12.041 29.8276 12.0304 29.8244L11.9436 29.8033L11.8295 29.7723L11.7675 29.755L11.7799 29.7624C11.7402 29.75 11.6993 29.7388 11.6559 29.7252L11.5406 29.688L11.4774 29.6669L11.3534 29.6235C11.305 29.6062 11.2579 29.5888 11.2095 29.569C11.1264 29.5367 11.0446 29.5032 10.9615 29.466L10.8933 29.4363L10.8003 29.3916C10.773 29.3792 10.747 29.3681 10.7222 29.3544C10.6552 29.321 10.5883 29.2875 10.5238 29.2528L10.4556 29.2156L10.3428 29.1511C10.2502 29.0973 10.1584 29.0415 10.0675 28.9837C10.0303 28.9601 9.99556 28.9366 9.96084 28.9118C9.92612 28.887 9.88768 28.8634 9.85296 28.8374C9.81824 28.8113 9.755 28.7679 9.70664 28.7307C9.65828 28.6935 9.6248 28.67 9.58264 28.6377C9.54048 28.6055 9.48344 28.5596 9.43508 28.5137C9.38672 28.4678 9.37308 28.4629 9.34332 28.4356C9.31356 28.4083 9.24784 28.3525 9.20072 28.3116C9.1784 28.288 9.1536 28.267 9.13004 28.2446C9.04944 28.1678 8.97008 28.0896 8.89444 28.0103L8.80516 27.9136L8.7754 27.8813C8.71712 27.8168 8.66008 27.7573 8.60428 27.6854L8.546 27.6147C8.49392 27.5515 8.44556 27.4907 8.3972 27.4238L8.3166 27.3134L8.28808 27.2725C8.26328 27.239 8.24096 27.2043 8.2174 27.1708C8.19384 27.1373 8.16656 27.0939 8.14052 27.0555C8.13184 27.0406 8.12192 27.027 8.11324 27.0133C8.09216 26.9774 8.07108 26.9439 8.04876 26.9079L7.9756 26.7839C7.8764 26.612 7.78505 26.4355 7.70156 26.2544L7.66932 26.1838L7.61848 26.0684C7.59988 26.0201 7.58004 25.9742 7.56268 25.9258C7.54532 25.8775 7.52548 25.8353 7.50936 25.7894C7.49324 25.7436 7.48456 25.7225 7.47464 25.689C7.46472 25.6555 7.45108 25.6258 7.44116 25.5923C7.42876 25.5551 7.41512 25.5179 7.4052 25.4807C7.39528 25.4435 7.37792 25.3964 7.36676 25.3567C7.36676 25.3381 7.3556 25.3195 7.35064 25.3009C7.32336 25.2042 7.29856 25.105 7.27624 25.007L7.24648 24.8718C7.23532 24.8123 7.22292 24.754 7.213 24.6958C7.20308 24.6375 7.19688 24.6003 7.18944 24.5519C7.182 24.5073 7.1758 24.4651 7.17084 24.4279C7.17084 24.4056 7.17084 24.3833 7.16216 24.361C7.16149 24.356 7.16149 24.351 7.16216 24.3461C7.16216 24.3089 7.15224 24.2717 7.14852 24.2345C7.1448 24.1973 7.13984 24.1328 7.13488 24.0807C7.13548 24.0737 7.13548 24.0666 7.13488 24.0596C7.13488 24.0088 7.12744 23.958 7.12496 23.9071C7.12248 23.8563 7.12496 23.7831 7.12496 23.7224C7.12496 23.6616 7.12496 23.6232 7.12496 23.5736V17.0822H0.648438V23.5475C0.648438 23.617 0.648438 23.6864 0.648438 23.7558C0.648438 23.8253 0.648438 23.9146 0.648438 23.9939V24.1588C0.648438 24.1663 0.648438 24.1737 0.648438 24.1824C0.648438 24.1911 0.648438 24.2283 0.648438 24.2518C0.648438 24.3138 0.648438 24.3758 0.659598 24.4366C0.670758 24.4974 0.670758 24.5842 0.676958 24.6573C0.683158 24.7305 0.688118 24.7813 0.693078 24.8396C0.701758 24.9264 0.711677 25.0144 0.722837 25.1025C0.733997 25.1905 0.738957 25.2414 0.748877 25.3108C0.758797 25.3802 0.767477 25.441 0.777397 25.5055C0.777996 25.5125 0.777996 25.5195 0.777397 25.5266C0.787317 25.5886 0.797238 25.6506 0.809638 25.715C0.823278 25.8105 0.841878 25.9048 0.860478 25.999C0.870398 26.0548 0.881557 26.1118 0.892717 26.1664C0.903877 26.221 0.921238 26.3065 0.938598 26.3772C0.952238 26.4454 0.968358 26.5136 0.984478 26.5806C1.00184 26.65 1.01796 26.7194 1.03532 26.7876L1.11592 27.0133C1.13452 27.079 1.15188 27.1373 1.17048 27.208C1.17393 27.2165 1.17683 27.2252 1.17916 27.234C1.19652 27.2936 1.21512 27.3518 1.23372 27.4114C1.25232 27.4709 1.27588 27.5465 1.29944 27.6147C1.323 27.6829 1.34656 27.7598 1.37384 27.833C1.40112 27.9061 1.416 27.957 1.43832 28.014C1.46064 28.071 1.4842 28.138 1.50776 28.1975V28.2124C1.5338 28.2781 1.55984 28.3438 1.58712 28.4096C1.63796 28.5336 1.69252 28.6576 1.74832 28.789C1.75046 28.7957 1.75294 28.8024 1.75576 28.8088C1.78304 28.8684 1.81032 28.9328 1.83884 28.9886C1.86736 29.0444 1.8996 29.1188 1.9306 29.1833L2.00748 29.3383C2.04716 29.4189 2.08932 29.4983 2.13148 29.5789C2.15628 29.6272 2.18356 29.6768 2.21084 29.7252C2.24556 29.7922 2.28152 29.8579 2.31872 29.9224L2.41544 30.0898C2.42536 30.1059 2.43528 30.1232 2.44644 30.1394L2.532 30.282C2.57044 30.3452 2.61012 30.406 2.656 30.4729C2.70188 30.5399 2.72048 30.5746 2.75396 30.6254C2.7563 30.6286 2.75837 30.6319 2.76016 30.6354C2.79488 30.6874 2.82836 30.7383 2.86432 30.7904C2.935 30.897 3.00816 31.0012 3.0838 31.1041C3.10736 31.1376 3.13092 31.1698 3.15572 31.202C3.22516 31.2988 3.29956 31.3942 3.37272 31.4897C3.41364 31.543 3.45456 31.5939 3.49672 31.6447C3.53888 31.6956 3.56492 31.7315 3.60088 31.7687C3.63684 31.8059 3.65668 31.8369 3.6852 31.8704C3.74844 31.946 3.8092 32.0204 3.8774 32.0936C3.9456 32.1668 4.0076 32.2387 4.07332 32.3106C4.12044 32.3614 4.16632 32.4098 4.21468 32.4594C4.22939 32.4768 4.24513 32.4934 4.2618 32.509C4.29776 32.5462 4.33372 32.5846 4.37216 32.6218L4.45524 32.7074C4.56064 32.8103 4.66604 32.9132 4.77392 33.0137L4.92272 33.1501C4.95992 33.1836 4.99712 33.217 5.03556 33.2493C5.074 33.2815 5.10004 33.3063 5.13228 33.3336C5.16452 33.3609 5.1918 33.3857 5.2228 33.4117C5.33316 33.5047 5.446 33.5965 5.55884 33.687C5.60224 33.7205 5.6444 33.7552 5.68284 33.7874L5.73988 33.8321L5.8304 33.9003L5.9544 33.9933C6.09824 34.0999 6.2458 34.2016 6.3946 34.2996L6.50744 34.3752C6.54092 34.3975 6.5744 34.4198 6.60788 34.4397C6.64136 34.4595 6.67112 34.4806 6.70336 34.5004C6.7356 34.5203 6.76536 34.5401 6.7976 34.56L6.90548 34.6257L7.10264 34.741C7.19192 34.7943 7.28244 34.8452 7.37544 34.8948C7.40892 34.9146 7.44488 34.9332 7.48084 34.9518C7.5478 34.989 7.616 35.0237 7.68296 35.0584L7.86772 35.1514L8.04132 35.2345C8.09464 35.2606 8.14796 35.2854 8.20376 35.3089L8.38356 35.3908L8.3972 35.397L8.577 35.4738H8.58692C8.64396 35.4986 8.70348 35.5222 8.76176 35.5458L8.78656 35.5544C8.8374 35.5768 8.89196 35.5966 8.94404 35.6164L9.00604 35.64L9.11516 35.6797C9.16724 35.7008 9.22056 35.7194 9.27388 35.738H9.28008C9.34332 35.7615 9.40408 35.7838 9.47104 35.8037L9.50328 35.8136L9.62728 35.8558L9.72648 35.8868L9.85916 35.9264L9.9224 35.9463L10.0985 35.9959H10.1245C10.1927 36.0157 10.2634 36.0343 10.3328 36.0517L10.5275 36.1013C10.592 36.1162 10.6515 36.1323 10.7234 36.1459L10.9194 36.1893L11.0359 36.2129L11.1959 36.2426C11.2517 36.255 11.3087 36.2637 11.367 36.2736L11.4488 36.2873L11.5939 36.3108L11.6559 36.3344C11.7043 36.3418 11.7526 36.3505 11.8022 36.3555L11.8965 36.3691L11.9659 36.3778L12.137 36.3976C12.1953 36.4038 12.2536 36.4113 12.3119 36.4162C12.3702 36.4212 12.4297 36.4274 12.488 36.4311L12.6417 36.4435C12.6764 36.4435 12.7124 36.4435 12.7484 36.451L12.9232 36.4609C12.9716 36.4609 13.0212 36.4671 13.0708 36.4671C13.2394 36.4745 13.4093 36.477 13.5816 36.477C13.754 36.477 13.9226 36.477 14.0925 36.4671C14.1421 36.4671 14.1905 36.4671 14.2401 36.4609L14.4137 36.451C14.4496 36.451 14.4868 36.451 14.5216 36.4435L14.6741 36.4311C14.7336 36.4311 14.7981 36.4224 14.8514 36.4162L15.0262 36.3976L15.1974 36.3778L15.2668 36.3691L15.361 36.3555C15.4094 36.3555 15.459 36.3418 15.5074 36.3344L15.552 36.3282L15.6996 36.3046L15.7802 36.291C15.8384 36.2811 15.8942 36.2724 15.9513 36.26L16.1112 36.2302L16.2266 36.2067L16.4237 36.1633C16.4894 36.1496 16.5552 36.1335 16.6196 36.1186L16.8143 36.069L17.0226 36.0132H17.0487L17.2248 35.9636L17.288 35.9438L17.4207 35.9041L17.5186 35.8731L17.6426 35.831L17.6736 35.821C17.7369 35.8012 17.7976 35.7789 17.8658 35.7553C17.9204 35.7367 17.9725 35.7181 18.0258 35.697L18.1349 35.6574L18.1957 35.6338C18.2502 35.614 18.3023 35.5941 18.3544 35.5718L18.3792 35.5631L18.554 35.4912H18.564L18.7438 35.4143L18.7562 35.4081L18.9384 35.3263C18.9918 35.3027 19.0463 35.2779 19.0996 35.2519L19.2732 35.1688L19.458 35.0758C19.5262 35.0411 19.5919 35.0064 19.6601 34.9692L19.7655 34.9121C19.8573 34.8625 19.949 34.8117 20.0383 34.7584V23.5475C20.042 23.5984 20.042 23.6467 20.0396 23.6963Z" fill="#3984F5"/>
<path d="M7.75745 15.1428L7.75745 7.38538L6.19888e-06 7.38538L6.19888e-06 15.1428H7.75745Z" fill="#5051DB"/>
<path d="M41.4929 12.7992V23.426C41.4929 24.9198 41.8583 26.0283 42.5891 26.7517C43.3198 27.475 44.3342 27.8367 45.632 27.8367C46.9183 27.8367 47.9264 27.475 48.6564 26.7517C49.3863 26.0283 49.7517 24.9198 49.7525 23.426V12.7992H51.956V23.4024C51.956 24.7995 51.675 25.9763 51.1128 26.9327C50.5848 27.8561 49.7911 28.5993 48.8349 29.0655C47.825 29.5256 46.7282 29.7637 45.6184 29.7637C44.5086 29.7637 43.4117 29.5256 42.4018 29.0655C41.4476 28.6012 40.6573 27.8572 40.1363 26.9327C39.5825 25.9771 39.3055 24.8003 39.3055 23.4024V12.7992H41.4929Z" fill="#5051DB"/>
<path d="M59.7456 16.9321C60.6053 16.4262 61.6056 16.1732 62.7464 16.1732C63.8674 16.1599 64.9711 16.4513 65.9394 17.0164C66.8969 17.5821 67.6773 18.4041 68.1925 19.3898C68.7381 20.4107 69.0108 21.5957 69.0108 22.9449C69.0108 24.2783 68.7381 25.467 68.1925 26.5111C67.6848 27.5166 66.9048 28.3592 65.9415 28.9428C64.9781 29.5264 63.8701 29.8276 62.7439 29.812C61.7015 29.8332 60.6729 29.5709 59.7679 29.0531C58.963 28.5993 58.2877 27.9471 57.8062 27.1584V35.8582H55.6139V16.3902H57.8062V18.8243C58.2752 18.0342 58.9441 17.3816 59.7456 16.9321ZM66.1675 20.3384C65.7977 19.6319 65.2331 19.0462 64.5407 18.6507C63.853 18.2645 63.0762 18.0653 62.2876 18.0729C61.5042 18.0668 60.7335 18.2706 60.0556 18.6631C59.3606 19.07 58.7929 19.6626 58.4163 20.3743C57.9948 21.1716 57.7836 22.0631 57.8025 22.9647C57.7819 23.8744 57.9932 24.7743 58.4163 25.5799C58.7926 26.2915 59.3604 26.8838 60.0556 27.2898C60.7333 27.6829 61.5041 27.8868 62.2876 27.8801C63.0779 27.8883 63.8559 27.6844 64.5407 27.2898C65.2341 26.8857 65.7984 26.2926 66.1675 25.5799C66.5693 24.8359 66.7702 23.9563 66.7702 22.9411C66.7702 21.95 66.5693 21.0824 66.1675 20.3384Z" fill="#5051DB"/>
<path d="M74.5773 18.1969V25.9804C74.5773 26.6227 74.7141 27.0774 74.9877 27.3444C75.2613 27.6114 75.735 27.7441 76.4087 27.7425H78.0207V29.6025H76.0479C74.8269 29.6025 73.911 29.3214 73.3001 28.7593C72.6891 28.1971 72.3841 27.2733 72.3849 25.9879V18.1969H70.6799V16.3903H72.3911V13.0646H74.5834V16.3903H78.0294V18.1969H74.5773Z" fill="#5051DB"/>
<path d="M80.7464 13.811C80.5332 13.6031 80.3873 13.3361 80.3276 13.0445C80.2678 12.7529 80.2968 12.45 80.411 12.175C80.5252 11.9001 80.7192 11.6657 80.968 11.5022C81.2168 11.3387 81.5089 11.2536 81.8066 11.2578C81.9982 11.2545 82.1885 11.2913 82.3651 11.3658C82.5417 11.4404 82.7007 11.551 82.8321 11.6906C83.1028 11.9772 83.2537 12.3565 83.2537 12.7508C83.2537 13.1451 83.1028 13.5244 82.8321 13.811C82.7011 13.9508 82.5423 14.0617 82.3659 14.1364C82.1895 14.2111 81.9994 14.2481 81.8078 14.245C81.6106 14.2494 81.4145 14.2131 81.2319 14.1384C81.0493 14.0638 80.884 13.9523 80.7464 13.811ZM82.8668 16.3902V29.595H80.6744V16.3902H82.8668Z" fill="#5051DB"/>
<path d="M105.229 16.787C106.041 17.2214 106.705 17.8885 107.136 18.7028C107.601 19.5551 107.834 20.5914 107.834 21.8115V29.595H105.662V22.1252C105.662 20.8084 105.336 19.8002 104.686 19.1009C104.035 18.4015 103.157 18.0522 102.052 18.0531C100.91 18.0531 100 18.4185 99.3241 19.1492C98.6479 19.88 98.3106 20.9377 98.3122 22.3224V29.6H96.1435V22.1252C96.1435 20.8084 95.8182 19.8002 95.1676 19.1009C94.517 18.4015 93.6374 18.0522 92.5289 18.0531C91.3881 18.0531 90.4787 18.4185 89.8009 19.1492C89.123 19.88 88.7874 20.9377 88.794 22.3224V29.6H86.6017V16.3902H88.794V18.2936C89.2184 17.6123 89.8231 17.0617 90.5412 16.7027C91.2933 16.3295 92.1233 16.1399 92.9629 16.1497C93.992 16.1282 95.0079 16.3853 95.9029 16.8937C96.7593 17.3975 97.4277 18.1673 97.8063 19.086C98.1565 18.1782 98.8015 17.4144 99.6378 16.9172C100.496 16.4021 101.48 16.1355 102.481 16.1472C103.436 16.1304 104.38 16.3502 105.229 16.787Z" fill="#5051DB"/>
<path d="M111.421 19.3898C111.936 18.4037 112.716 17.5815 113.674 17.0164C114.643 16.4512 115.746 16.1597 116.867 16.1732C118.025 16.1732 119.029 16.4212 119.879 16.9172C120.673 17.3588 121.331 18.0088 121.783 18.7971V16.3902H124V29.595H121.783V27.1373C121.32 27.938 120.65 28.5997 119.843 29.0531C118.984 29.559 117.983 29.812 116.843 29.812C115.722 29.8264 114.62 29.5256 113.662 28.944C112.705 28.3558 111.929 27.5137 111.421 26.5111C110.875 25.467 110.604 24.2775 110.608 22.9424C110.608 21.5941 110.879 20.4099 111.421 19.3898ZM121.18 20.3657C120.808 19.6585 120.245 19.0699 119.555 18.6669C118.868 18.282 118.095 18.0788 117.309 18.0767C116.522 18.0745 115.748 18.2734 115.06 18.6545C114.374 19.0534 113.815 19.6386 113.448 20.3421C113.042 21.0836 112.84 21.9504 112.84 22.9424C112.84 23.9542 113.041 24.8338 113.443 25.5811C113.809 26.291 114.368 26.8835 115.055 27.2911C115.737 27.6885 116.514 27.8933 117.304 27.8838C118.094 27.8916 118.872 27.6878 119.557 27.2936C120.25 26.889 120.814 26.296 121.183 25.5836C121.599 24.7758 121.806 23.8768 121.785 22.9684C121.784 21.9731 121.582 21.1055 121.18 20.3657Z" fill="#5051DB"/>
</svg>
